REM DIRINDEX 1\2,1\3
REM DIRNAME folder01,folder02,folder03
TITLE ""
FILE "CD2Track18.mp3" MP3
  TRACK 01 AUDIO
    TITLE "0:"
    INDEX 01 00:00:00
  TRACK 02 AUDIO
    TITLE "2:cjc102_3106"
    INDEX 01 00:00:25
  TRACK 03 AUDIO
    TITLE "0:"
    INDEX 01 00:01:13
  TRACK 04 AUDIO
    TITLE "3:cjc102_3107"
    INDEX 01 00:01:30
  TRACK 05 AUDIO
    TITLE "0:"
    INDEX 01 00:02:69
  TRACK 06 AUDIO
    TITLE "3:cjc102_3108"
    INDEX 01 00:04:11
  TRACK 07 AUDIO
    TITLE "0:"
    INDEX 01 00:07:66
  TRACK 08 AUDIO
    TITLE "2:cjc102_3109"
    INDEX 01 00:07:70
  TRACK 09 AUDIO
    TITLE "0:"
    INDEX 01 00:09:10
  TRACK 10 AUDIO
    TITLE "3:cjc102_3110"
    INDEX 01 00:09:65
  TRACK 11 AUDIO
    TITLE "0:"
    INDEX 01 00:10:53
  TRACK 12 AUDIO
    TITLE "2:cjc102_3111"
    INDEX 01 00:10:59
  TRACK 13 AUDIO
    TITLE "0:"
    INDEX 01 00:11:62
  TRACK 14 AUDIO
    TITLE "3:cjc102_3112"
    INDEX 01 00:12:36
  TRACK 15 AUDIO
    TITLE "0:"
    INDEX 01 00:13:22
  TRACK 16 AUDIO
    TITLE "2:cjc102_3113"
    INDEX 01 00:13:59
  TRACK 17 AUDIO
    TITLE "0:"
    INDEX 01 00:14:72
  TRACK 18 AUDIO
    TITLE "3:cjc102_3114"
    INDEX 01 00:15:70
  TRACK 19 AUDIO
    TITLE "0:"
    INDEX 01 00:16:69
  TRACK 20 AUDIO
    TITLE "2:cjc102_3115"
    INDEX 01 00:17:12
  TRACK 21 AUDIO
    TITLE "0:"
    INDEX 01 00:18:09
  TRACK 22 AUDIO
    TITLE "3:cjc102_3116"
    INDEX 01 00:18:66
  TRACK 23 AUDIO
    TITLE "0:"
    INDEX 01 00:19:63
  TRACK 24 AUDIO
    TITLE "2:cjc102_3117"
    INDEX 01 00:20:59
  TRACK 25 AUDIO
    TITLE "0:"
    INDEX 01 00:21:72
  TRACK 26 AUDIO
    TITLE "3:cjc102_3118"
    INDEX 01 00:22:56
  TRACK 27 AUDIO
    TITLE "0:"
    INDEX 01 00:23:36
  TRACK 28 AUDIO
    TITLE "2:cjc102_3119"
    INDEX 01 00:24:39
  TRACK 29 AUDIO
    TITLE "0:"
    INDEX 01 00:25:48
  TRACK 30 AUDIO
    TITLE "3:cjc102_3120"
    INDEX 01 00:27:04
  TRACK 31 AUDIO
    TITLE "0:"
    INDEX 01 00:28:04
  TRACK 32 AUDIO
    TITLE "2:cjc102_3121"
    INDEX 01 00:28:35
  TRACK 33 AUDIO
    TITLE "0:"
    INDEX 01 00:29:40
  TRACK 34 AUDIO
    TITLE "3:cjc102_3122"
    INDEX 01 00:30:69
  TRACK 35 AUDIO
    TITLE "0:"
    INDEX 01 00:31:65
  TRACK 36 AUDIO
    TITLE "2:cjc102_3123"
    INDEX 01 00:32:17
  TRACK 37 AUDIO
    TITLE "0:"
    INDEX 01 00:33:28
  TRACK 38 AUDIO
    TITLE "3:cjc102_3124"
    INDEX 01 00:34:59
  TRACK 39 AUDIO
    TITLE "0:"
    INDEX 01 00:35:57
  TRACK 40 AUDIO
    TITLE "2:cjc102_3125"
    INDEX 01 00:35:70
  TRACK 41 AUDIO
    TITLE "0:"
    INDEX 01 00:37:08
  TRACK 42 AUDIO
    TITLE "3:cjc102_3126"
    INDEX 01 00:37:54
  TRACK 43 AUDIO
    TITLE "0:"
    INDEX 01 00:38:47
  TRACK 44 AUDIO
    TITLE "2:cjc102_3127"
    INDEX 01 00:39:60
  TRACK 45 AUDIO
    TITLE "0:"
    INDEX 01 00:40:72
  TRACK 46 AUDIO
    TITLE "3:cjc102_3128"
    INDEX 01 00:41:61
  TRACK 47 AUDIO
    TITLE "0:"
    INDEX 01 00:42:57
  TRACK 48 AUDIO
    TITLE "2:cjc102_3129"
    INDEX 01 00:43:27
  TRACK 49 AUDIO
    TITLE "0:"
    INDEX 01 00:44:42
  TRACK 50 AUDIO
    TITLE "3:cjc102_3130"
    INDEX 01 00:45:22
  TRACK 51 AUDIO
    TITLE "0:"
    INDEX 01 00:46:39
  TRACK 52 AUDIO
    TITLE "2:cjc102_3131"
    INDEX 01 00:47:42
  TRACK 53 AUDIO
    TITLE "0:"
    INDEX 01 00:48:53
  TRACK 54 AUDIO
    TITLE "3:cjc102_3132"
    INDEX 01 00:49:39
  TRACK 55 AUDIO
    TITLE "0:"
    INDEX 01 00:50:50
  TRACK 56 AUDIO
    TITLE "2:cjc102_3133"
    INDEX 01 00:51:22
  TRACK 57 AUDIO
    TITLE "0:"
    INDEX 01 00:52:32
  TRACK 58 AUDIO
    TITLE "3:cjc102_3134"
    INDEX 01 00:53:64
  TRACK 59 AUDIO
    TITLE "0:"
    INDEX 01 00:55:10
  TRACK 60 AUDIO
    TITLE "2:cjc102_3135"
    INDEX 01 00:55:50
  TRACK 61 AUDIO
    TITLE "0:"
    INDEX 01 00:56:61
  TRACK 62 AUDIO
    TITLE "3:cjc102_3136"
    INDEX 01 00:57:50
  TRACK 63 AUDIO
    TITLE "0:"
    INDEX 01 00:58:69
  TRACK 64 AUDIO
    TITLE "2:cjc102_3137"
    INDEX 01 00:59:41
  TRACK 65 AUDIO
    TITLE "0:"
    INDEX 01 01:00:43
  TRACK 66 AUDIO
    TITLE "3:cjc102_3138"
    INDEX 01 01:01:62
  TRACK 67 AUDIO
    TITLE "0:"
    INDEX 01 01:02:69
  TRACK 68 AUDIO
    TITLE "2:cjc102_3139"
    INDEX 01 01:03:31
  TRACK 69 AUDIO
    TITLE "0:"
    INDEX 01 01:04:56
  TRACK 70 AUDIO
    TITLE "3:cjc102_3140"
    INDEX 01 01:05:60
  TRACK 71 AUDIO
    TITLE "0:"
    INDEX 01 01:06:71
  TRACK 72 AUDIO
    TITLE "2:cjc102_3141"
    INDEX 01 01:07:64
  TRACK 73 AUDIO
    TITLE "0:"
    INDEX 01 01:08:70
  TRACK 74 AUDIO
    TITLE "3:cjc102_3142"
    INDEX 01 01:10:06
  TRACK 75 AUDIO
    TITLE "0:"
    INDEX 01 01:11:27
  TRACK 76 AUDIO
    TITLE "2:cjc102_3143"
    INDEX 01 01:12:40
  TRACK 77 AUDIO
    TITLE "0:"
    INDEX 01 01:13:42
  TRACK 78 AUDIO
    TITLE "2:cjc102_3144"
    INDEX 01 01:14:06
  TRACK 79 AUDIO
    TITLE "0:"
    INDEX 01 01:15:15
  TRACK 80 AUDIO
    TITLE "3:cjc102_3145"
    INDEX 01 01:16:28
  TRACK 81 AUDIO
    TITLE "0:"
    INDEX 01 01:17:53
  TRACK 82 AUDIO
    TITLE "2:cjc102_3146"
    INDEX 01 01:18:06
  TRACK 83 AUDIO
    TITLE "0:"
    INDEX 01 01:19:11
  TRACK 84 AUDIO
    TITLE "2:cjc102_3147"
    INDEX 01 01:19:58
  TRACK 85 AUDIO
    TITLE "0:"
    INDEX 01 01:20:63
  TRACK 86 AUDIO
    TITLE "3:cjc102_3148"
    INDEX 01 01:22:03
  TRACK 87 AUDIO
    TITLE "0:"
    INDEX 01 01:23:26
  TRACK 88 AUDIO
    TITLE "2:cjc102_3149"
    INDEX 01 01:23:38
  TRACK 89 AUDIO
    TITLE "0:"
    INDEX 01 01:24:39
  TRACK 90 AUDIO
    TITLE "2:cjc102_3150"
    INDEX 01 01:25:15
  TRACK 91 AUDIO
    TITLE "0:"
    INDEX 01 01:26:23
  TRACK 92 AUDIO
    TITLE "3:cjc102_3151"
    INDEX 01 01:27:42
  TRACK 93 AUDIO
    TITLE "0:"
    INDEX 01 01:28:53
  TRACK 94 AUDIO
    TITLE "2:cjc102_3152"
    INDEX 01 01:28:63
  TRACK 95 AUDIO
    TITLE "0:"
    INDEX 01 01:29:72
  TRACK 96 AUDIO
    TITLE "2:cjc102_3153"
    INDEX 01 01:30:38
  TRACK 97 AUDIO
    TITLE "0:"
    INDEX 01 01:31:49
  TRACK 98 AUDIO
    TITLE "3:cjc102_3154"
    INDEX 01 01:32:55
  TRACK 99 AUDIO
    TITLE "0:"
    INDEX 01 01:34:08
  TRACK 100 AUDIO
    TITLE "2:cjc102_3155"
    INDEX 01 01:34:10
  TRACK 101 AUDIO
    TITLE "0:"
    INDEX 01 01:35:63
  TRACK 102 AUDIO
    TITLE "3:cjc102_3156"
    INDEX 01 01:37:03
  TRACK 103 AUDIO
    TITLE "0:"
    INDEX 01 01:38:26
  TRACK 104 AUDIO
    TITLE "2:cjc102_3157"
    INDEX 01 01:39:14
  TRACK 105 AUDIO
    TITLE "0:"
    INDEX 01 01:40:62
  TRACK 106 AUDIO
    TITLE "3:cjc102_3158"
    INDEX 01 01:42:14
  TRACK 107 AUDIO
    TITLE "0:"
    INDEX 01 01:43:41
  TRACK 108 AUDIO
    TITLE "2:cjc102_3159"
    INDEX 01 01:44:07
  TRACK 109 AUDIO
    TITLE "0:"
    INDEX 01 01:46:43
  TRACK 110 AUDIO
    TITLE "3:cjc102_3160"
    INDEX 01 01:47:48
  TRACK 111 AUDIO
    TITLE "0:"
    INDEX 01 01:49:04
  TRACK 112 AUDIO
    TITLE "2:cjc102_3161"
    INDEX 01 01:49:22
  TRACK 113 AUDIO
    TITLE "0:"
    INDEX 01 01:50:35
  TRACK 114 AUDIO
    TITLE "3:cjc102_3162"
    INDEX 01 01:51:72
  TRACK 115 AUDIO
    TITLE "0:"
    INDEX 01 01:53:20
  TRACK 116 AUDIO
    TITLE "2:cjc102_3163"
    INDEX 01 01:53:49
  TRACK 117 AUDIO
    TITLE "0:"
    INDEX 01 01:54:66
  TRACK 118 AUDIO
    TITLE "3:cjc102_3164"
    INDEX 01 01:56:61
  TRACK 119 AUDIO
    TITLE "0:"
    INDEX 01 01:58:21
  TRACK 120 AUDIO
    TITLE "2:cjc102_3165"
    INDEX 01 01:58:36
  TRACK 121 AUDIO
    TITLE "0:"
    INDEX 01 01:59:38
  TRACK 122 AUDIO
    TITLE "3:cjc102_3166"
    INDEX 01 02:01:68
  TRACK 123 AUDIO
    TITLE "0:"
    INDEX 01 02:03:26
  TRACK 124 AUDIO
    TITLE "2:cjc102_3167"
    INDEX 01 02:03:47
  TRACK 125 AUDIO
    TITLE "0:"
    INDEX 01 02:04:51
